<svg width="1440" height="1074" viewBox="0 0 1440 1074" fill="none" xmlns="http://www.w3.org/2000/svg">
<path d="M1237.47 212.084C1237.47 212.084 1240.55 209.286 1247.42 204.466C1254.29 199.802 1265.69 193.74 1282.5 189.542C1299.14 185.345 1321.56 183.635 1346.88 188.765C1372.02 193.584 1400.22 206.332 1421.2 229.651C1442.54 252.504 1456.83 284.684 1458.63 320.751C1460.81 356.972 1448.86 396.459 1426.26 434.547C1379.79 510.411 1299.68 583.944 1197.15 650.791C1145.79 684.371 1088.65 716.24 1027.35 747.954C966.04 779.513 901.129 811.849 830.967 842.161C760.8 872.01 685.573 900.619 603.837 921.138C563.15 931.707 520.654 939.946 476.711 945.384C432.95 951.136 387.742 953.317 341.991 951.606C296.603 950.673 247.777 945.541 207.271 921.914C187.56 909.941 172.008 891.752 166.945 870.77C161.52 849.78 166.402 827.857 175.986 808.272C195.336 768.63 230.96 736.916 266.945 707.068C303.474 676.908 343.618 649.547 385.753 623.43C427.887 597.313 472.191 572.75 517.218 548.188C562.245 523.625 607.815 498.597 654.65 474.344C748.322 425.841 848.507 379.67 958.991 350.132C1014.14 335.363 1071.65 324.948 1130.78 321.217C1189.56 317.486 1250.68 319.662 1308.91 335.519C1337.83 343.447 1366.05 354.33 1391.54 369.254C1417.04 384.177 1439.82 403.455 1455.2 427.085C1487.93 474.033 1484.86 534.818 1458.45 584.099C1432.59 634.779 1383.22 674.11 1328.61 702.715C1273.28 731.475 1212.34 751.839 1149.41 767.697C1023.19 798.785 888.108 807.181 753.024 800.496C617.399 793.967 481.413 772.985 344.342 749.508C275.806 737.693 206.547 724.946 138.554 706.29C104.739 696.808 71.1034 686.08 38.3728 673.022C5.82318 660.274 -27.0882 644.884 -51.3198 620.476C-63.2547 608.351 -72.6582 593.426 -75.0091 577.103C-78.0832 560.936 -73.7432 544.146 -65.6057 529.688C-48.6074 500.617 -18.5891 479.319 13.0565 463.307C77.0713 430.505 151.756 417.602 225.535 411.228C373.637 400.812 524.632 400.345 676.532 412.316C752.481 418.534 828.429 427.862 904.023 441.853C941.816 448.538 979.426 456.778 1016.86 465.639C1053.93 474.656 1092.63 484.604 1124.63 505.903C1140.55 516.474 1153.93 529.999 1162.98 545.701C1172.01 561.247 1176.17 579.59 1172.2 597.002C1168.57 614.569 1157.73 630.27 1143.8 643.018C1130.06 655.921 1113.6 666.026 1096.42 674.887C1027.16 708.622 949.952 729.92 870.385 738.937C830.602 743.29 790.275 744.378 749.949 742.357C709.805 740.025 669.117 735.361 630.781 723.08C592.806 711.11 555.374 691.366 534.035 659.652C523.366 643.951 518.484 625.762 518.846 607.573C519.388 589.385 525.355 571.662 534.578 555.649C572.553 490.979 659.714 453.513 743.258 460.353C784.85 463.773 826.621 479.164 854.105 507.457C881.415 535.44 895.522 572.595 891.724 609.284C889.916 627.472 883.041 645.661 871.106 661.207C859.172 676.753 841.997 688.879 823.005 697.429C784.488 714.374 739.28 716.24 697.87 708C657.002 699.916 615.23 679.862 596.603 644.572C587.562 627.006 589.732 605.086 602.932 589.229C615.772 573.217 636.025 563.112 657.363 558.604C678.882 554.095 700.944 555.494 722.101 558.604C743.258 561.868 763.692 566.687 784.127 571.818C824.813 582.233 865.318 595.914 900.763 617.057C936.392 638.043 965.867 667.736 981.417 702.87C989.187 720.437 993.351 739.403 992.082 758.367C991.178 777.332 984.494 795.992 974.359 812.626C953.567 846.045 919.756 872.167 881.78 890.355C862.971 899.685 842.718 907.296 821.918 912.742C801.127 918.65 779.786 922.378 758.087 924.559C671.469 933.261 581.052 914.452 508.538 871.547C435.662 829.104 380.327 766.3 347.416 696.341C330.96 661.207 319.387 624.207 315.951 586.12C312.153 548.188 315.77 509.323 330.056 472.945C343.799 436.413 370.744 403.3 406.91 380.447C443.077 357.438 485.572 344.38 528.068 335.208C613.602 317.175 702.029 314.843 788.829 317.641C875.444 321.527 962.607 324.481 1047.06 342.515C1130.78 360.237 1212.34 398.169 1262.61 460.197C1287.57 490.979 1302.58 527.511 1305.29 564.822C1308 602.132 1300.59 639.442 1285.21 673.955C1255.2 743.912 1193.71 799.719 1125.54 842.318C1091.36 863.928 1055.01 882.579 1018.12 899.991C981.234 917.403 943.441 933.418 904.379 946.788C865.318 960.159 824.63 970.415 783.042 975.546C741.45 980.835 698.774 979.744 657.725 973.373C575.085 960.308 499.135 928.286 429.694 890.355C360.436 852.111 296.963 805.164 249.405 747.484C201.303 690.122 173.817 621.254 166.583 551.918C158.807 482.273 171.828 412.16 198.41 347.178C211.791 314.688 229.513 283.595 250.49 254.369C260.616 239.444 273.275 226.231 284.486 212.084C297.326 199.026 309.622 185.5 323.546 173.374C378.519 124.094 443.619 83.8298 514.506 54.9142C585.572 26.3097 661.884 8.27634 739.099 2.05797C816.312 -4.00496 894.253 3.45711 967.857 21.9568C1040.73 41.2338 1110.71 75.2793 1156.28 128.602C1201.85 181.769 1220.47 247.374 1226.08 310.956C1235.3 438.899 1207.28 566.377 1150.49 680.795C1121.92 737.849 1086.84 792.414 1043.26 841.228C999.678 889.735 946.875 932.484 884.848 961.87C823.005 990.784 752.481 1006.49 682.68 1002.44C647.96 1000.42 613.602 993.421 582.136 981.141C550.492 969.175 521.558 952.697 495.337 934.038C442.715 896.57 399.677 851.648 356.819 808.115C314.143 764.275 273.275 718.572 247.777 666.026C235.48 639.754 227.524 611.926 225.897 583.632C224.631 555.339 229.875 527.356 239.82 500.772C259.893 447.605 295.879 400.968 336.204 359.46C416.856 276.288 523.366 212.395 641.45 186.899C758.629 161.404 886.117 173.53 984.85 227.008C1034.4 252.97 1075.99 288.104 1110.17 326.658C1143.62 365.678 1170.56 408.274 1189.74 452.58C1228.79 541.037 1241.64 635.245 1228.25 724.013C1221.56 768.473 1206.91 811.379 1185.39 850.871C1163.88 890.355 1133.32 925.336 1097.51 954.25C1024.63 1011.92 932.229 1042.09 843.075 1057.94C753.205 1073.17 663.693 1078.46 579.063 1067.74C536.929 1062.29 496.06 1052.5 458.99 1037.26C421.739 1022.19 388.465 1002.13 359.532 979.124C301.846 932.947 262.425 875.431 240.002 816.981C217.398 758.367 212.515 698.362 220.472 643.329C227.885 588.141 246.873 537.616 271.466 493.31C296.059 448.849 326.44 410.606 358.628 378.115C423.727 313.288 493.89 271.625 552.842 243.02C612.155 214.571 660.618 198.559 693.349 188.609C726.26 178.816 743.439 175.085 743.439 175.085C743.439 175.085 739.28 176.328 730.781 178.66C722.282 180.836 709.985 184.412 693.53 189.387C660.98 199.492 612.517 215.66 553.565 244.419C494.976 273.18 425.174 314.998 360.617 379.67C328.609 412.005 298.591 450.248 274.179 494.554C249.947 538.705 231.141 588.918 223.908 643.796C216.132 698.517 221.195 757.904 243.618 815.891C266.042 873.72 305.282 930.617 362.425 976.323C419.207 1022.34 495.699 1053.75 579.605 1063.54C663.331 1074.11 752.662 1068.67 841.814 1053.43C930.421 1037.57 1021.92 1007.57 1093.53 950.673C1128.62 922.071 1158.63 887.554 1179.97 848.69C1201.12 809.825 1215.41 767.383 1222.11 723.39C1235.3 635.556 1222.46 542.125 1183.58 454.601C1164.42 410.761 1138.02 368.632 1104.75 330.078C1070.93 291.99 1029.87 257.478 981.052 231.983C883.944 179.437 758.448 167.467 642.715 192.807C526.259 217.992 421.015 281.108 341.267 363.502C301.485 404.699 266.042 450.87 246.511 502.794C236.928 528.755 231.683 556.116 233.13 583.477C234.576 610.838 242.352 637.888 254.468 663.694C279.423 715.151 319.929 760.548 362.425 804.074C405.463 847.607 448.321 892.223 500.039 929.063C551.215 966.217 614.687 992.644 683.042 995.909C751.034 999.8 820.11 984.405 880.876 956.11C941.633 927.195 993.716 885.224 1036.57 837.187C1079.61 788.992 1114.33 734.895 1142.54 678.307C1198.78 564.978 1226.44 438.433 1217.4 311.889C1211.8 249.239 1193.35 184.879 1149.22 133.266C1105.1 81.6531 1036.75 48.2295 964.963 29.2634C892.628 11.0746 815.773 3.61258 739.461 9.67548C663.331 15.8939 588.104 33.6163 517.941 61.9099C447.959 90.359 383.763 130.156 329.695 178.66C315.951 190.63 304.016 204 291.358 216.903C280.327 230.895 267.849 243.953 257.904 258.567C237.289 287.326 219.748 317.952 206.547 349.977C180.327 413.871 167.487 483.05 175.263 551.297C182.497 619.544 209.26 686.858 256.457 743.134C303.112 799.719 365.68 846.202 434.216 883.984C502.932 921.444 577.977 953.003 658.81 965.754C699.135 971.968 740.546 973.059 781.234 967.927C821.918 962.953 861.884 952.846 900.398 939.632C938.921 926.419 976.349 910.561 1013.06 893.306C1049.77 876.051 1085.57 857.556 1119.39 836.253C1186.66 794.124 1246.51 739.558 1275.81 671.468C1290.64 637.888 1297.87 601.511 1295.16 565.599C1292.45 529.688 1278.16 494.709 1254.11 465.017C1230.24 435.324 1197.87 410.761 1161.71 391.795C1125.54 372.674 1085.39 359.615 1043.98 350.599C960.982 332.721 874.001 329.767 787.743 325.88C701.486 323.082 613.963 325.414 529.695 343.136C487.923 352.153 446.332 364.901 411.792 386.976C377.254 408.896 351.575 440.299 338.194 475.588C324.269 510.722 320.834 548.499 324.45 585.498C327.886 622.653 339.279 658.875 355.373 693.387C387.742 762.102 441.991 823.659 513.059 865.018C583.584 906.833 671.829 925.179 756.278 916.626C777.436 914.452 798.233 910.874 818.302 905.28C838.555 899.991 858.086 892.529 876.348 883.513C913.063 865.945 945.614 840.764 965.319 809.048C985.397 777.489 987.205 739.092 971.829 705.979C956.818 672.555 928.795 644.106 894.436 623.897C860.076 603.376 820.658 590.006 780.511 579.746C740.366 570.263 698.593 558.759 658.81 566.687C639.46 570.885 621.016 580.213 609.804 594.049C598.411 607.884 596.423 626.229 604.379 641.774C611.974 657.476 626.802 670.379 643.439 680.173C660.257 689.967 679.425 696.496 699.316 700.539C738.918 708.467 781.957 706.446 817.946 690.744C835.66 682.816 851.575 671.468 862.606 657.165C873.636 642.863 879.972 626.073 881.78 608.972C885.214 574.616 872.01 539.171 846.334 513.054C820.658 486.626 781.234 471.857 741.631 468.592C661.884 462.063 577.797 498.13 541.992 559.536C533.131 574.771 527.706 591.406 527.164 608.04C526.802 624.674 531.323 641.619 541.268 656.077C560.799 685.459 596.242 704.58 633.132 716.084C670.383 727.899 710.166 732.563 749.769 734.895C789.371 736.916 829.15 735.827 868.394 731.63C946.692 722.769 1023.19 701.626 1091 668.669C1107.63 660.119 1123.37 650.325 1136.39 638.199C1149.41 626.229 1159.35 611.926 1162.61 596.069C1169.66 564.045 1147.78 531.865 1118.31 512.432C1088.11 492.378 1050.67 482.428 1013.6 473.567C976.349 464.706 939.104 456.466 901.485 449.782C826.438 435.79 750.673 426.618 675.084 420.4C523.909 408.43 373.095 408.741 225.897 419.001C152.84 425.219 79.2409 437.967 16.854 469.992C-14.2492 485.537 -42.6399 506.058 -58.5532 533.264C-66.1482 546.788 -69.9456 561.868 -67.2332 576.482C-65.0631 591.25 -56.5639 604.775 -45.3523 616.279C-22.3865 639.287 9.44001 654.367 41.628 667.114C73.8162 680.017 107.089 690.744 140.725 700.072C208.175 718.727 277.072 731.319 345.426 743.134C482.317 766.763 618.122 787.596 753.024 794.281C887.56 800.966 1021.74 792.727 1146.88 761.945C1209.09 746.243 1269.84 725.878 1324.27 697.74C1378.16 669.446 1426.45 631.048 1451.4 581.922C1477.08 533.885 1479.97 475.588 1448.69 430.505C1434.04 407.808 1411.97 389.152 1387.39 374.695C1362.61 360.081 1335.12 349.355 1306.73 341.582C1249.77 325.881 1189.56 323.704 1131.15 327.435C1072.73 331.166 1015.59 341.427 960.799 356.039C851.036 385.266 751.397 431.126 657.906 479.474C611.07 503.727 565.5 528.6 520.473 553.163C475.446 577.725 431.323 602.132 389.189 628.094C347.235 654.056 307.09 681.261 270.743 711.11C234.757 740.958 199.675 772.208 180.869 810.602C171.466 829.567 166.945 850.4 172.008 870.143C176.71 889.885 191.357 906.99 209.983 918.493C248.682 941.186 296.783 946.631 341.63 947.408C387.018 949.119 432.046 946.945 475.446 941.343C519.026 936.062 561.16 927.972 601.847 917.403C683.403 897.197 758.268 868.746 828.429 839.054C898.417 809.048 963.328 776.712 1024.63 745.311C1085.76 713.752 1142.9 682.039 1194.26 648.77C1296.61 582.389 1376.71 509.168 1423.19 434.081C1445.8 396.459 1457.73 357.283 1455.74 321.527C1454.11 285.772 1440.19 253.903 1419.22 231.361C1398.6 208.198 1370.75 195.605 1345.98 190.63C1321.02 185.5 1298.78 187.055 1282.32 190.941C1248.69 199.492 1237.47 213.638 1237.11 212.55L1237.47 212.084Z" fill="#4C858D" fill-opacity="0.05"/>
</svg>
