<svg width="18" height="17" viewBox="0 0 18 17" fill="none" xmlns="http://www.w3.org/2000/svg">
<path d="M15.616 8.4918C15.616 12.1735 12.4444 15.1585 8.53267 15.1585C4.6209 15.1585 1.44934 12.1735 1.44934 8.4918C1.44934 4.81013 4.6209 1.82513 8.53267 1.82513C12.4444 1.82513 15.616 4.81013 15.616 8.4918Z" fill="#2196F3"/>
<path d="M7.82442 7.82518H9.24109V11.4918H7.82442V7.82518ZM9.41817 5.99184C9.41817 6.45151 9.02115 6.82518 8.53276 6.82518C8.04436 6.82518 7.64734 6.45151 7.64734 5.99184C7.64734 5.53218 8.04436 5.15851 8.53276 5.15851C9.02115 5.15851 9.41817 5.53218 9.41817 5.99184Z" fill="white"/>
</svg>
